<svg width="303" height="243" viewBox="0 0 303 243" fill="none" xmlns="http://www.w3.org/2000/svg">
<g opacity="0.4">
<path d="M256.674 512.674C398.059 512.674 512.674 398.059 512.674 256.674C512.674 115.289 398.059 0.673584 256.674 0.673584C115.289 0.673584 0.673828 115.289 0.673828 256.674C0.673828 398.059 115.289 512.674 256.674 512.674Z" fill="url(#paint0_radial_106_16679)"/>
<path opacity="0.9" d="M256.674 512.674C398.059 512.674 512.674 398.059 512.674 256.674C512.674 115.289 398.059 0.673584 256.674 0.673584C115.289 0.673584 0.673828 115.289 0.673828 256.674C0.673828 398.059 115.289 512.674 256.674 512.674Z" stroke="#445368" stroke-width="1.34737"/>
<mask id="mask0_106_16679" style="mask-type:luminance" maskUnits="userSpaceOnUse" x="0" y="0" width="513" height="513">
<path d="M256.674 512.674C398.059 512.674 512.674 398.059 512.674 256.674C512.674 115.289 398.059 0.673584 256.674 0.673584C115.289 0.673584 0.673828 115.289 0.673828 256.674C0.673828 398.059 115.289 512.674 256.674 512.674Z" fill="white"/>
</mask>
<g mask="url(#mask0_106_16679)">
<g opacity="0.2">
<path d="M256.674 512.674C379.704 512.674 479.439 398.059 479.439 256.674C479.439 115.289 379.704 0.673584 256.674 0.673584C133.644 0.673584 33.9092 115.289 33.9092 256.674C33.9092 398.059 133.644 512.674 256.674 512.674Z" stroke="#D5D8E2" stroke-width="0.898246"/>
<path d="M256.674 512.674C342.001 512.674 411.172 398.059 411.172 256.674C411.172 115.289 342.001 0.673584 256.674 0.673584C171.347 0.673584 102.176 115.289 102.176 256.674C102.176 398.059 171.347 512.674 256.674 512.674Z" stroke="#D5D8E2" stroke-width="0.898246"/>
<path d="M256.674 512.674C298.842 512.674 333.025 398.059 333.025 256.674C333.025 115.289 298.842 0.673584 256.674 0.673584C214.507 0.673584 180.323 115.289 180.323 256.674C180.323 398.059 214.507 512.674 256.674 512.674Z" stroke="#D5D8E2" stroke-width="0.898246"/>
<path d="M256.674 341.109C398.059 341.109 512.674 303.306 512.674 256.674C512.674 210.041 398.059 172.239 256.674 172.239C115.289 172.239 0.673828 210.041 0.673828 256.674C0.673828 303.306 115.289 341.109 256.674 341.109Z" stroke="#D5D8E2" stroke-width="0.898246"/>
<path d="M256.674 405.782C398.059 405.782 512.674 339.024 512.674 256.673C512.674 174.323 398.059 107.565 256.674 107.565C115.289 107.565 0.673828 174.323 0.673828 256.673C0.673828 339.024 115.289 405.782 256.674 405.782Z" stroke="#D5D8E2" stroke-width="0.898246"/>
<path d="M256.674 463.27C398.059 463.27 512.674 370.774 512.674 256.674C512.674 142.574 398.059 50.0771 256.674 50.0771C115.289 50.0771 0.673828 142.574 0.673828 256.674C0.673828 370.774 115.289 463.27 256.674 463.27Z" stroke="#D5D8E2" stroke-width="0.898246"/>
</g>
</g>
</g>
<defs>
<radialGradient id="paint0_radial_106_16679" cx="0" cy="0" r="1" gradientUnits="userSpaceOnUse" gradientTransform="translate(181.221 123.733) rotate(50) scale(431.158)">
<stop stop-color="#2A4353"/>
<stop offset="0.42" stop-color="#0A1F2C"/>
<stop offset="1" stop-color="white" stop-opacity="0"/>
</radialGradient>
</defs>
</svg>
