<svg width="269" height="57" viewBox="0 0 269 57" fill="none" xmlns="http://www.w3.org/2000/svg">
<path d="M20.6497 9.71053C24.2023 3.55263 28.4655 0 36.5181 0H64.2286C66.597 0 68.0181 2.60526 66.8339 4.5L57.597 20.1316C56.8865 21.3158 55.7023 22.0263 54.2812 22.0263H36.2812C32.9655 22.0263 30.597 23.4474 28.9391 26.2895L17.097 46.6579C16.3865 48.0789 14.9655 48.7895 13.3076 48.7895H3.59704C0.754934 48.7895 -0.902961 45.7105 0.518092 43.3421L20.6497 9.71053Z" fill="white" fill-opacity="0.95"/>
<path d="M67.0713 47.1316C63.5187 53.2895 59.2555 56.8421 51.2029 56.8421H23.4924C21.124 56.8421 19.7029 54.2368 20.8871 52.3421L30.124 36.7105C30.8345 35.5263 32.0187 34.8158 33.4398 34.8158H51.4398C54.7555 34.8158 57.124 33.3947 58.7819 30.5526L70.624 10.1842C71.3345 8.76316 72.7555 8.05263 74.4134 8.05263H84.124C86.9661 8.05263 88.624 11.1316 87.2029 13.5L67.0713 47.1316Z" fill="#068760"/>
<path d="M106.917 41.4211V16.4755H116.722C118.304 16.4755 119.632 16.7989 120.706 17.4456C121.78 18.0923 122.589 18.9296 123.132 19.9575C123.674 20.9738 123.946 22.0478 123.946 23.1796C123.946 24.5539 123.605 25.7319 122.924 26.7136C122.254 27.6952 121.347 28.3651 120.204 28.7231L120.169 27.8742C121.763 28.2669 122.987 29.0349 123.842 30.1782C124.697 31.31 125.124 32.6324 125.124 34.1453C125.124 35.612 124.829 36.8881 124.24 37.9737C123.663 39.0593 122.814 39.9082 121.694 40.5202C120.585 41.1208 119.24 41.4211 117.657 41.4211H106.917ZM110.59 37.9737H117.103C117.923 37.9737 118.656 37.8178 119.303 37.506C119.961 37.1942 120.475 36.7495 120.845 36.1721C121.226 35.5831 121.417 34.8844 121.417 34.076C121.417 33.3253 121.249 32.6497 120.914 32.0491C120.591 31.4371 120.117 30.9578 119.494 30.6113C118.882 30.2533 118.16 30.0743 117.328 30.0743H110.59V37.9737ZM110.59 26.6616H116.67C117.34 26.6616 117.94 26.5288 118.472 26.2632C119.014 25.986 119.442 25.5933 119.754 25.0852C120.077 24.5655 120.239 23.9418 120.239 23.2143C120.239 22.2442 119.915 21.4473 119.269 20.8236C118.622 20.2 117.756 19.8882 116.67 19.8882H110.59V26.6616Z" fill="white"/>
<path d="M135.501 41.4211L143.608 16.4755H148.822L156.929 41.4211H153.17L145.704 18.6582H146.639L139.26 41.4211H135.501ZM139.71 35.791V32.3956H152.737V35.791H139.71Z" fill="white"/>
<path d="M168.699 41.4211V16.4755H172.372L184.654 35.0114V16.4755H188.326V41.4211H184.654L172.372 22.8678V41.4211H168.699Z" fill="white"/>
<path d="M201.823 41.4211V16.4755H205.444V28.1168L215.89 16.4755H220.394L209.359 28.6538L221.208 41.4211H216.565L205.444 29.5026V41.4211H201.823Z" fill="white"/>
<path d="M232.654 41.4211V16.4755H236.275V41.4211H232.654Z" fill="white"/>
<path d="M250.139 41.4211V16.4755H260.221C260.464 16.4755 260.764 16.487 261.122 16.5101C261.48 16.5217 261.821 16.5563 262.144 16.6141C263.53 16.8335 264.685 17.307 265.609 18.0346C266.544 18.7622 267.243 19.6803 267.705 20.789C268.167 21.8977 268.398 23.1219 268.398 24.4615C268.398 26.4479 267.889 28.1629 266.873 29.6066C265.857 31.0386 264.332 31.9337 262.3 32.2917L260.827 32.4649H253.759V41.4211H250.139ZM264.725 41.4211L259.805 31.2696L263.46 30.3341L268.865 41.4211H264.725ZM253.759 29.0349H260.082C260.313 29.0349 260.567 29.0233 260.845 29.0002C261.133 28.9771 261.405 28.9367 261.659 28.879C262.398 28.7057 262.993 28.3882 263.443 27.9262C263.894 27.4527 264.217 26.9099 264.413 26.2978C264.61 25.6857 264.708 25.0736 264.708 24.4615C264.708 23.8494 264.61 23.2431 264.413 22.6426C264.217 22.0305 263.894 21.4935 263.443 21.0315C262.993 20.558 262.398 20.2346 261.659 20.0614C261.405 19.9921 261.133 19.9459 260.845 19.9228C260.567 19.8997 260.313 19.8882 260.082 19.8882H253.759V29.0349Z" fill="white"/>
</svg>
