<svg width="24" height="24" viewBox="0 0 24 24" fill="none" xmlns="http://www.w3.org/2000/svg">
<g clip-path="url(#clip0_38_26048)">
<path d="M24 12C24 18.6274 18.6274 24 12 24C5.37262 24 0 18.6274 0 12C0 12.0028 12 0.00135937 12 0C18.6274 0 24 5.37262 24 12Z" fill="#0052B4"/>
<path d="M11.9678 12.0004H11.9999C11.9999 11.9895 11.9999 11.9791 11.9999 11.9683C11.9892 11.979 11.9785 11.9897 11.9678 12.0004Z" fill="#F0F0F0"/>
<path d="M12 6.26183C12 4.15035 12 2.76674 12 0.000976562H11.998C5.3715 0.00205469 0 5.37416 0 12.0009H6.26086V8.47537L9.78642 12.0009H11.9679C11.9787 11.9902 11.9894 11.9796 12 11.9688C12 11.1604 12 10.439 12 9.78744L8.47443 6.26183H12Z" fill="#F0F0F0"/>
<path d="M6.07124 1.56592C4.19441 2.63462 2.63413 4.1949 1.56543 6.07173V12.0007H4.69588V4.69642V4.69637H12.0002C12.0002 3.70904 12.0002 2.76845 12.0002 1.56592H6.07124Z" fill="#D80027"/>
<path d="M12.0003 10.5251L7.7369 6.26174H6.26123C6.26123 6.26169 6.26123 6.26174 6.26123 6.26174L12.0003 12.0008H12.0003C12.0003 12.0008 12.0003 10.9834 12.0003 10.5251Z" fill="#D80027"/>
<path d="M7.23778 14.0864L7.89637 15.4635L9.38357 15.1198L8.71757 16.4933L9.91354 17.4417L8.42446 17.7774L8.42864 19.3038L7.23778 18.3488L6.04696 19.3038L6.05114 17.7774L4.56201 17.4417L5.75803 16.4933L5.09193 15.1198L6.57923 15.4635L7.23778 14.0864Z" fill="#F0F0F0"/>
<path d="M17.9673 16.6953L18.2965 17.3839L19.0402 17.212L18.7071 17.8987L19.3052 18.373L18.5606 18.5408L18.5627 19.304L17.9673 18.8265L17.3718 19.304L17.3739 18.5408L16.6294 18.373L17.2274 17.8987L16.8944 17.212L17.638 17.3839L17.9673 16.6953Z" fill="#F0F0F0"/>
<path d="M14.9038 9.3916L15.2331 10.0802L15.9767 9.90826L15.6437 10.595L16.2417 11.0693L15.4972 11.2371L15.4992 12.0003L14.9038 11.5228L14.3084 12.0003L14.3104 11.2371L13.5659 11.0693L14.1639 10.595L13.8309 9.90826L14.5745 10.0802L14.9038 9.3916Z" fill="#F0F0F0"/>
<path d="M17.9673 5.21777L18.2965 5.90637L19.0402 5.73448L18.7072 6.42124L19.3051 6.89543L18.5606 7.06329L18.5627 7.82651L17.9673 7.34899L17.3718 7.82651L17.3739 7.06329L16.6294 6.89543L17.2273 6.42124L16.8944 5.73448L17.638 5.90637L17.9673 5.21777Z" fill="#F0F0F0"/>
<path d="M20.6426 8.34814L20.9718 9.03674L21.7155 8.8648L21.3825 9.55157L21.9804 10.0258L21.2359 10.1937L21.2379 10.9568L20.6426 10.4794L20.0472 10.9568L20.0492 10.1937L19.3047 10.0258L19.9027 9.55157L19.5697 8.8648L20.3132 9.03674L20.6426 8.34814Z" fill="#F0F0F0"/>
<path d="M18.7295 12.0005L18.9885 12.7976H19.8267L19.1486 13.2903L19.4077 14.0875L18.7295 13.5948L18.0514 14.0875L18.3104 13.2903L17.6323 12.7976H18.4705L18.7295 12.0005Z" fill="#F0F0F0"/>
</g>
<defs>
<clipPath id="clip0_38_26048">
<rect width="24" height="24" fill="white"/>
</clipPath>
</defs>
</svg>
