<svg width="24" height="24" viewBox="0 0 24 24" fill="none" xmlns="http://www.w3.org/2000/svg">
<g clip-path="url(#clip0_38_26016)">
<path d="M12 24C18.6274 24 24 18.6274 24 12C24 5.37258 18.6274 0 12 0C5.37258 0 0 5.37258 0 12C0 18.6274 5.37258 24 12 24Z" fill="#D80027"/>
<path d="M13.2392 9.07739C12.9665 10.2117 12.482 9.99539 12.2442 10.9846C10.8434 10.6478 9.9807 9.23925 10.3175 7.83839C10.6542 6.43763 12.0629 5.57494 13.4637 5.91174C12.9881 7.89019 13.4832 8.06288 13.2392 9.07739Z" fill="#F0F0F0"/>
<path d="M9.60444 9.91724C10.599 10.5271 10.2435 10.9212 11.1108 11.4531C10.3576 12.6812 8.75141 13.0663 7.52319 12.3132C6.29502 11.56 5.90985 9.95376 6.66304 8.72559C8.39769 9.78927 8.7148 9.37176 9.60444 9.91724Z" fill="#F0F0F0"/>
<path d="M9.28044 13.6348C10.1678 12.8774 10.4326 13.3372 11.2065 12.6768C12.1419 13.7726 12.0117 15.4192 10.916 16.3546C9.82015 17.29 8.17353 17.1597 7.23828 16.064C8.78581 14.7429 8.4867 14.3122 9.28044 13.6348Z" fill="#F0F0F0"/>
<path d="M12.7155 15.0914C12.2692 14.0135 12.7884 13.9036 12.3994 12.9636C13.7306 12.4127 15.2565 13.0452 15.8075 14.3764C16.3584 15.7076 15.7258 17.2334 14.3946 17.7844C13.6166 15.9043 13.1146 16.0557 12.7155 15.0914Z" fill="#F0F0F0"/>
<path d="M15.1623 12.2738C13.9991 12.3651 14.055 11.8373 13.0408 11.9169C12.9282 10.4807 14.0013 9.22483 15.4376 9.11209C16.8739 8.99964 18.1297 10.0727 18.2423 11.5091C16.2137 11.6681 16.2025 12.1923 15.1623 12.2738Z" fill="#F0F0F0"/>
</g>
<defs>
<clipPath id="clip0_38_26016">
<rect width="24" height="24" fill="white"/>
</clipPath>
</defs>
</svg>
