<svg width="24" height="24" viewBox="0 0 24 24" fill="none" xmlns="http://www.w3.org/2000/svg">
<g clip-path="url(#clip0_38_25963)">
<path d="M12 24C18.6274 24 24 18.6274 24 12C24 5.37258 18.6274 0 12 0C5.37258 0 0 5.37258 0 12C0 18.6274 5.37258 24 12 24Z" fill="#F0F0F0"/>
<path d="M0.413086 15.1299C1.1074 17.7061 2.63763 19.9389 4.69535 21.52V15.1299H0.413086Z" fill="#0052B4"/>
<path d="M10.9561 23.9538C11.3 23.9834 11.6479 23.9994 11.9995 23.9994C17.5439 23.9994 22.2091 20.2391 23.5861 15.1299H10.9561V23.9538Z" fill="#0052B4"/>
<path d="M23.5861 8.86906C22.2091 3.75987 17.5439 -0.000488281 11.9995 -0.000488281C11.6479 -0.000488281 11.3 0.015543 10.9561 0.045168V8.86906H23.5861Z" fill="#0052B4"/>
<path d="M4.69535 2.47949C2.63763 4.06059 1.1074 6.29338 0.413086 8.86959H4.69535V2.47949Z" fill="#0052B4"/>
<path d="M23.8979 10.4352H9.39087H9.39082V0.285645C8.28186 0.531551 7.2305 0.930129 6.26037 1.45949V10.4352H0.10109C0.034293 10.9476 -0.000488281 11.4699 -0.000488281 12.0004C-0.000488281 12.5309 0.034293 13.0533 0.10109 13.5656H6.26032H6.26037V22.5413C7.2305 23.0706 8.28186 23.4693 9.39082 23.7151V13.5658V13.5657H23.8979C23.9646 13.0533 23.9995 12.5309 23.9995 12.0004C23.9995 11.4699 23.9646 10.9475 23.8979 10.4352Z" fill="#D80027"/>
</g>
<defs>
<clipPath id="clip0_38_25963">
<rect width="24" height="24" fill="white"/>
</clipPath>
</defs>
</svg>
