<svg width="24" height="24" viewBox="0 0 24 24" fill="none" xmlns="http://www.w3.org/2000/svg">
<g clip-path="url(#clip0_38_26149)">
<path d="M12 24C18.6274 24 24 18.6274 24 12C24 5.37258 18.6274 0 12 0C5.37258 0 0 5.37258 0 12C0 18.6274 5.37258 24 12 24Z" fill="#FFDA44"/>
<path d="M19.3054 2.48062C17.2819 0.925266 14.749 0 11.9996 0C9.25024 0 6.7173 0.925312 4.69385 2.48062L11.9996 9.78638L19.3054 2.48062Z" fill="#6DA544"/>
<path d="M2.48009 4.69385C0.924824 6.7173 -0.000488281 9.25019 -0.000488281 11.9996C-0.000488281 14.749 0.924824 17.2819 2.48014 19.3054L9.78593 11.9996L2.48009 4.69385Z" fill="black"/>
<path d="M4.69385 21.5186C6.71735 23.074 9.25024 23.9993 11.9996 23.9993C14.7491 23.9993 17.2819 23.0739 19.3054 21.5186L11.9996 14.2129L4.69385 21.5186Z" fill="#6DA544"/>
<path d="M21.5191 19.3053C23.0745 17.2819 23.9997 14.749 23.9997 11.9996C23.9997 9.25019 23.0745 6.7173 21.5191 4.69385L14.2134 11.9996L21.5191 19.3053Z" fill="black"/>
</g>
<defs>
<clipPath id="clip0_38_26149">
<rect width="24" height="24" fill="white"/>
</clipPath>
</defs>
</svg>
