<svg width="24" height="24" viewBox="0 0 24 24" fill="none" xmlns="http://www.w3.org/2000/svg">
<g clip-path="url(#clip0_38_26112)">
<path d="M12 24C18.6274 24 24 18.6274 24 12C24 5.37258 18.6274 0 12 0C5.37258 0 0 5.37258 0 12C0 18.6274 5.37258 24 12 24Z" fill="#F0F0F0"/>
<path d="M11.9999 -0.000488281C8.36285 -0.000488281 5.10396 1.61782 2.90332 4.1734H21.0965C18.8959 1.61782 15.637 -0.000488281 11.9999 -0.000488281Z" fill="#0052B4"/>
<path d="M21.0961 19.8267H2.90283C5.10347 22.3822 8.36236 24.0006 11.9994 24.0006C15.6365 24.0006 18.8954 22.3822 21.0961 19.8267Z" fill="#0052B4"/>
<path d="M22.2387 5.73877H1.76128C0.644297 7.5615 0 9.70524 0 11.9996C0 14.294 0.644297 16.4378 1.76128 18.2605H22.2387C23.3557 16.4378 24 14.294 24 11.9996C24 9.70524 23.3557 7.5615 22.2387 5.73877Z" fill="#D80027"/>
<path d="M7.38251 16.6181C9.93261 16.6181 11.9999 14.5508 11.9999 12.0007C11.9999 9.45057 9.93261 7.3833 7.38251 7.3833C4.8324 7.3833 2.76514 9.45057 2.76514 12.0007C2.76514 14.5508 4.8324 16.6181 7.38251 16.6181Z" fill="#F0F0F0"/>
<path d="M7.3823 7.3833L8.41828 10.5718H11.7763L9.05864 12.5425L10.1027 15.7405L7.3823 13.7604L4.66599 15.7368L5.70596 12.5425L2.99072 10.5718H6.34627L7.3823 7.3833Z" fill="#D80027"/>
</g>
<defs>
<clipPath id="clip0_38_26112">
<rect width="24" height="24" fill="white"/>
</clipPath>
</defs>
</svg>
