<svg width="24" height="24" viewBox="0 0 24 24" fill="none" xmlns="http://www.w3.org/2000/svg">
<g clip-path="url(#clip0_38_25992)">
<path d="M12 24C18.6274 24 24 18.6274 24 12C24 5.37258 18.6274 0 12 0C5.37258 0 0 5.37258 0 12C0 18.6274 5.37258 24 12 24Z" fill="#F0F0F0"/>
<path d="M2.74316 4.36295H21.2573C20.5735 3.5349 19.7804 2.80061 18.9006 2.18115H5.0999C4.2201 2.80051 3.42702 3.53486 2.74316 4.36295Z" fill="#F0F0F0"/>
<path d="M0 12.0005C0 12.3684 0.0174844 12.732 0.049875 13.0915H23.9501C23.9825 12.732 24 12.3684 24 12.0005C24 11.6327 23.9825 11.2691 23.9501 10.9097H0.049875C0.0174844 11.2691 0 11.6327 0 12.0005Z" fill="#F0F0F0"/>
<path d="M1.30884 17.4547H22.6917C23.0451 16.7635 23.3332 16.0336 23.5484 15.2729H0.452148C0.667258 16.0336 0.955539 16.7635 1.30884 17.4547Z" fill="#F0F0F0"/>
<path d="M5.0999 21.818H18.9005C19.7803 21.1986 20.5734 20.4643 21.2572 19.6362H2.74316C3.42702 20.4642 4.2201 21.1986 5.0999 21.818Z" fill="#F0F0F0"/>
<path d="M0.452148 8.7277H23.5485C23.3333 7.96701 23.0451 7.23707 22.6918 6.5459H1.30888C0.955586 7.23707 0.667305 7.96701 0.452148 8.7277Z" fill="#F0F0F0"/>
<path d="M5.73828 2.1818H18.8995C16.9476 0.807516 14.5677 0 11.9991 0C10.4339 0 7.69016 0.807516 5.73828 2.1818Z" fill="#D80027"/>
<path d="M11.478 6.54508H22.6912C22.2921 5.76447 21.8102 5.03327 21.2568 4.36328H11.478V6.54508Z" fill="#D80027"/>
<path d="M11.478 10.9084H23.9499C23.8824 10.1592 23.7467 9.42964 23.5479 8.72656H11.478V10.9084Z" fill="#D80027"/>
<path d="M0.451316 15.2736H23.5476C23.7464 14.5706 23.8821 13.841 23.9496 13.0918H0.0493164C0.116816 13.841 0.252473 14.5705 0.451316 15.2736Z" fill="#D80027"/>
<path d="M2.74248 19.6369H21.2566C21.81 18.9668 22.2919 18.2356 22.691 17.4551H1.30811C1.70715 18.2357 2.18912 18.9669 2.74248 19.6369Z" fill="#D80027"/>
<path d="M11.999 24.0002C14.5676 24.0002 16.9474 23.1926 18.8993 21.8184H5.09863C7.05051 23.1926 9.43035 24.0002 11.999 24.0002Z" fill="#D80027"/>
<path d="M0.451758 8.72679C0.252914 9.42992 0.117305 10.1594 0.0498047 10.9086H11.9999V-0.000488281C6.50711 -0.000488281 1.87638 3.69007 0.451758 8.72679Z" fill="#0052B4"/>
<path d="M7.14357 3.13037L7.92052 5.5217H10.4352L8.40089 6.99976L9.1778 9.39123L7.14357 7.91326L5.10924 9.39123L5.88633 6.99976L3.85205 5.5217H6.36657L7.14357 3.13037Z" fill="#F0F0F0"/>
</g>
<defs>
<clipPath id="clip0_38_25992">
<rect width="24" height="24" fill="white"/>
</clipPath>
</defs>
</svg>
