<svg width="24" height="24" viewBox="0 0 24 24" fill="none" xmlns="http://www.w3.org/2000/svg">
<g clip-path="url(#clip0_38_25973)">
<path d="M23.2541 16.1745C23.7365 14.8745 24.0005 13.4684 24.0005 12.0006C24.0005 10.5327 23.7365 9.12662 23.2541 7.82669L12.0005 6.7832L0.746879 7.82669C0.264488 9.12662 0.000488281 10.5327 0.000488281 12.0006C0.000488281 13.4684 0.264488 14.8745 0.746879 16.1745L12.0005 17.2179L23.2541 16.1745Z" fill="#6DA544"/>
<path d="M23.2538 7.82562C21.5583 3.25601 17.1598 -0.000488281 12.0002 -0.000488281C6.84061 -0.000488281 2.4421 3.25601 0.746582 7.82562H23.2538Z" fill="#FFDA44"/>
<path d="M12.0002 24.0009C17.1598 24.0009 21.5583 20.7444 23.2538 16.1748H0.746582C2.4421 20.7444 6.84061 24.0009 12.0002 24.0009Z" fill="#D80027"/>
</g>
<defs>
<clipPath id="clip0_38_25973">
<rect width="24" height="24" fill="white"/>
</clipPath>
</defs>
</svg>
