<svg width="24" height="24" viewBox="0 0 24 24" fill="none" xmlns="http://www.w3.org/2000/svg">
<g clip-path="url(#clip0_38_26120)">
<path d="M12 24C18.6274 24 24 18.6274 24 12C24 5.37258 18.6274 0 12 0C5.37258 0 0 5.37258 0 12C0 18.6274 5.37258 24 12 24Z" fill="#338AF3"/>
<path d="M11.6211 19.5563C11.2976 19.5406 11.0299 19.3304 10.9251 19.0449C10.7399 19.2865 10.4216 19.4081 10.108 19.3272C9.79394 19.2464 9.57433 18.9865 9.52891 18.6849C9.29828 18.8842 8.96228 18.9384 8.6717 18.7961C8.38056 18.6531 8.21781 18.3541 8.2345 18.0499C7.96895 18.1991 7.62878 18.1845 7.37261 17.9863C7.11695 17.788 7.0173 17.463 7.0945 17.1682C6.80439 17.261 6.47467 17.1786 6.26336 16.9328C6.05205 16.6876 6.01966 16.349 6.15433 16.0762C5.8517 16.1085 5.54495 15.9614 5.38736 15.6786C5.22925 15.3958 5.26581 15.0572 5.45308 14.8166C5.14994 14.7874 4.87862 14.5813 4.78159 14.2725C4.68405 13.9636 4.78839 13.6391 5.02056 13.4413C4.72942 13.3515 4.50611 13.0948 4.47325 12.773C4.44039 12.4511 4.60736 12.1553 4.87394 12.0081C4.60731 11.862 4.43931 11.5662 4.47114 11.2448C4.47114 11.2448 4.47114 11.2448 4.47166 11.2448C4.50348 10.9223 4.7268 10.6652 5.01737 10.5743C4.7852 10.3771 4.67983 10.0531 4.77634 9.74424C4.87286 9.43486 5.14361 9.22824 5.4468 9.19795C5.25948 8.95795 5.22194 8.61928 5.37897 8.33606C5.536 8.05327 5.8428 7.90561 6.14594 7.93744C6.01028 7.66458 6.04211 7.32595 6.25291 7.07972C6.46319 6.834 6.79291 6.75103 7.08353 6.84286C7.00525 6.54858 7.10439 6.22303 7.36005 6.02428C7.61519 5.82544 7.95536 5.8103 8.22091 5.95847C8.2037 5.65435 8.36594 5.35533 8.65656 5.21185C8.94667 5.06888 9.28319 5.12213 9.51428 5.32139C9.55862 5.01989 9.77828 4.75903 10.0918 4.67756C10.4049 4.59619 10.7231 4.7167 10.9089 4.95774C11.0137 4.67236 11.2809 4.46156 11.6043 4.44539C11.9273 4.42875 12.2142 4.61025 12.3478 4.8832C12.5075 4.62441 12.8111 4.47103 13.131 4.51955C13.4513 4.56755 13.6971 4.80333 13.7732 5.09817C13.9819 4.87585 14.3106 4.78772 14.6143 4.89933C14.9185 5.0115 15.1115 5.29219 15.1261 5.59688C15.375 5.42161 15.7151 5.40122 15.9901 5.57236C16.2651 5.74299 16.3971 6.05653 16.3501 6.35756C16.6292 6.23602 16.9663 6.28453 17.2011 6.50677C17.4359 6.72956 17.5026 7.06294 17.3962 7.34831C17.6941 7.28517 18.0145 7.39997 18.2002 7.66552C18.3859 7.93055 18.3844 8.27072 18.2232 8.529C18.5274 8.52689 18.818 8.70431 18.9468 9.00117C19.0752 9.29855 19.0047 9.63197 18.7945 9.85266C19.0935 9.91214 19.3423 10.1443 19.408 10.4615C19.4732 10.7787 19.3371 11.0902 19.0872 11.264C19.3668 11.3825 19.564 11.6595 19.5646 11.9829C19.5646 11.9865 19.5646 11.9897 19.5646 11.9934C19.5646 11.9955 19.5646 11.9981 19.5646 12.0002C19.5646 12.3236 19.3684 12.6012 19.0887 12.7207C19.3392 12.8934 19.4764 13.2049 19.4112 13.5221C19.3465 13.8393 19.0982 14.072 18.7992 14.1325C19.01 14.3527 19.0815 14.6856 18.9536 14.9835C18.8258 15.2809 18.5352 15.4588 18.2305 15.4572C18.3922 15.7155 18.3948 16.0557 18.2096 16.3212C18.0244 16.5869 17.7046 16.7026 17.4067 16.64C17.5136 16.9249 17.4474 17.2588 17.2131 17.4821C16.9783 17.705 16.6418 17.754 16.3627 17.6334C16.4102 17.934 16.2787 18.2481 16.0042 18.4197C15.7298 18.5914 15.3896 18.5715 15.1402 18.3968C15.1261 18.7014 14.9341 18.9827 14.6305 19.0954C14.6305 19.0954 14.6305 19.0954 14.63 19.0954C14.3263 19.2075 13.9976 19.1199 13.7884 18.8982C13.7133 19.1935 13.4681 19.4298 13.1477 19.4789C12.8279 19.5274 12.5237 19.3751 12.3636 19.1163C12.2363 19.3787 11.9671 19.5571 11.6603 19.5571C11.6472 19.5573 11.6342 19.5568 11.6211 19.5563Z" fill="#F3F3F3"/>
<path d="M12.0001 17.2184C14.8816 17.2184 17.2175 14.8825 17.2175 12.0011C17.2175 9.11959 14.8816 6.78369 12.0001 6.78369C9.11862 6.78369 6.78271 9.11959 6.78271 12.0011C6.78271 14.8825 9.11862 17.2184 12.0001 17.2184Z" fill="#338AF3"/>
<path d="M13.142 10.2291C13.3983 10.039 13.5652 9.73506 13.5652 9.39138V8.86966C13.5652 8.29333 13.0981 7.82617 12.5217 7.82617H11.4783C10.902 7.82617 10.4348 8.29333 10.4348 8.86966V9.39138C10.4348 9.73506 10.6017 10.039 10.858 10.2291L9.91309 19.8261C9.91309 19.8261 10.4348 20.3479 12.0001 20.3479C13.5653 20.3479 14.087 19.8261 14.087 19.8261L13.142 10.2291Z" fill="#BDBCC1"/>
<path d="M12.0002 7.82617L12.9067 10.6161H15.8404L13.4671 12.3405L14.3735 15.1305L12.0002 13.4062L9.62687 15.1305L10.5335 12.3405L8.16016 10.6161H11.0937L12.0002 7.82617Z" fill="#F0F0F0"/>
</g>
<defs>
<clipPath id="clip0_38_26120">
<rect width="24" height="24" fill="white"/>
</clipPath>
</defs>
</svg>
