<svg width="24" height="24" viewBox="0 0 24 24" fill="none" xmlns="http://www.w3.org/2000/svg">
<g clip-path="url(#clip0_38_26061)">
<path d="M12 24C18.6274 24 24 18.6274 24 12C24 5.37258 18.6274 0 12 0C5.37258 0 0 5.37258 0 12C0 18.6274 5.37258 24 12 24Z" fill="#F0F0F0"/>
<path d="M0 12C0 5.37262 5.37262 0 12 0C18.6274 0 24 5.37262 24 12" fill="#D80027"/>
<path d="M7.30402 6.26101C7.30402 4.51267 8.53275 3.05214 10.1736 2.69378C9.92138 2.63875 9.65977 2.60889 9.39094 2.60889C7.37386 2.60889 5.73877 4.24398 5.73877 6.26106C5.73877 8.27814 7.37386 9.91323 9.39094 9.91323C9.65967 9.91323 9.92133 9.88337 10.1736 9.82829C8.53275 9.46993 7.30402 8.0094 7.30402 6.26101Z" fill="#F0F0F0"/>
<path d="M11.9995 2.87012L12.2585 3.66723H13.0967L12.4186 4.15993L12.6776 4.95704L11.9995 4.46443L11.3214 4.95704L11.5804 4.15993L10.9023 3.66723H11.7405L11.9995 2.87012Z" fill="#F0F0F0"/>
<path d="M9.96639 4.43457L10.2254 5.23173H11.0635L10.3855 5.72438L10.6445 6.52149L9.96639 6.02888L9.2882 6.52149L9.54728 5.72438L8.86914 5.23173H9.70731L9.96639 4.43457Z" fill="#F0F0F0"/>
<path d="M14.0332 4.43457L14.2923 5.23173H15.1304L14.4523 5.72438L14.7113 6.52149L14.0332 6.02888L13.3551 6.52149L13.6141 5.72438L12.936 5.23173H13.7742L14.0332 4.43457Z" fill="#F0F0F0"/>
<path d="M13.2505 6.7832L13.5095 7.58036H14.3476L13.6695 8.07302L13.9286 8.87012L13.2505 8.37752L12.5724 8.87012L12.8314 8.07302L12.1533 7.58036H12.9914L13.2505 6.7832Z" fill="#F0F0F0"/>
<path d="M10.7491 6.7832L11.008 7.58036H11.8463L11.1681 8.07302L11.4272 8.87012L10.7491 8.37752L10.0709 8.87012L10.3299 8.07302L9.65186 7.58036H10.49L10.7491 6.7832Z" fill="#F0F0F0"/>
</g>
<defs>
<clipPath id="clip0_38_26061">
<rect width="24" height="24" fill="white"/>
</clipPath>
</defs>
</svg>
