<svg width="24" height="24" viewBox="0 0 24 24" fill="none" xmlns="http://www.w3.org/2000/svg">
<g clip-path="url(#clip0_38_25993)">
<path d="M12 24C18.6274 24 24 18.6274 24 12C24 5.37258 18.6274 0 12 0C5.37258 0 0 5.37258 0 12C0 18.6274 5.37258 24 12 24Z" fill="#F0F0F0"/>
<path d="M23.0639 7.34682C21.2466 3.03005 16.9776 -0.000976562 12 -0.000976562C8.68625 -0.000976562 5.68657 1.34241 3.51514 3.51413L6.52029 7.34682H23.0639Z" fill="black"/>
<path d="M6.55437 16.6074L3.51514 20.4836C5.68657 22.6553 8.68625 23.9987 12 23.9987C16.9944 23.9987 21.2756 20.9474 23.0824 16.6074H6.55437Z" fill="#496E2D"/>
<path d="M2.60889 8.82617V15.1305H23.5868C23.856 14.1325 24.0002 13.0832 24.0002 12.0001C24.0002 10.9012 23.8522 9.83717 23.5754 8.82617H2.60889Z" fill="#A2001D"/>
<path d="M3.51471 3.51465C-1.17157 8.20093 -1.17157 15.7989 3.51471 20.4853C5.45126 18.5487 7.31375 16.6862 12 12L3.51471 3.51465Z" fill="#0052B4"/>
<path d="M3.9084 9.0166L5.37301 11.0604L7.76964 10.2989L6.2785 12.3236L7.74311 14.3675L5.3568 13.575L3.86561 15.5996L3.88201 13.0851L1.49561 12.2925L3.89204 11.531L3.9084 9.0166Z" fill="#FFDA44"/>
</g>
<defs>
<clipPath id="clip0_38_25993">
<rect width="24" height="24" fill="white"/>
</clipPath>
</defs>
</svg>
