<svg width="24" height="24" viewBox="0 0 24 24" fill="none" xmlns="http://www.w3.org/2000/svg">
<g clip-path="url(#clip0_38_26014)">
<path d="M11.9995 -0.000488281C11.1035 -0.000488281 10.2308 0.0985586 9.39086 0.284746L8.86914 11.9995L9.39086 23.7142C10.2308 23.9004 11.1036 23.9995 11.9995 23.9995C18.6269 23.9995 23.9995 18.6269 23.9995 11.9995C23.9995 5.37209 18.6269 -0.000488281 11.9995 -0.000488281Z" fill="#496E2D"/>
<path d="M3.12992 3.91699C1.18536 6.04962 -0.000488281 8.88602 -0.000488281 11.9996C-0.000488281 15.1131 1.1854 17.9495 3.12997 20.0822L3.65168 11.9996L3.12992 3.91699Z" fill="#496E2D"/>
<path d="M17.5517 9.0518C18.1421 7.40621 17.4788 5.61647 16.0553 4.7251C16.3114 4.75843 16.5677 4.81871 16.8206 4.90941C18.7192 5.5906 19.7061 7.68178 19.0249 9.58032C18.3437 11.479 16.2525 12.4658 14.3539 11.7846C14.101 11.6939 13.8648 11.5774 13.646 11.4404C15.3115 11.6573 16.9613 10.6974 17.5517 9.0518Z" fill="#F0F0F0"/>
<path d="M14.2771 4.27441L13.7641 4.93732L12.9752 4.65424L13.447 5.34696L12.9341 6.00977L13.7387 5.77512L14.2106 6.46774L14.2359 5.62999L15.0406 5.39529L14.2517 5.1123L14.2771 4.27441Z" fill="#F0F0F0"/>
<path d="M15.6624 6.43555L15.1493 7.09841L14.3604 6.81533L14.8323 7.50805L14.3193 8.17086L15.1239 7.93611L15.5959 8.62887L15.6213 7.79108L16.4259 7.55633L15.637 7.2733L15.6624 6.43555Z" fill="#F0F0F0"/>
<path d="M11.8342 5.06055L11.3212 5.72336L10.5323 5.44037L11.0042 6.13305L10.4912 6.79591L11.2958 6.5612L11.7677 7.25388L11.7931 6.41613L12.5977 6.18142L11.8089 5.89834L11.8342 5.06055Z" fill="#F0F0F0"/>
<path d="M11.7781 7.53467L11.2651 8.19753L10.4762 7.9145L10.9482 8.60721L10.4351 9.27003L11.2398 9.03537L11.7116 9.728L11.737 8.89025L12.5417 8.65554L11.7527 8.37246L11.7781 7.53467Z" fill="#F0F0F0"/>
<path d="M14.1321 8.38037L13.6191 9.04318L12.8302 8.76015L13.3022 9.45287L12.7891 10.1156L13.5938 9.88098L14.0657 10.5737L14.091 9.73586L14.8957 9.5012L14.1067 9.21817L14.1321 8.38037Z" fill="#F0F0F0"/>
<path d="M3.13037 3.91731V20.0825C4.76537 21.8756 6.93709 23.1706 9.39123 23.7146V0.285156C6.93704 0.829188 4.76542 2.12411 3.13037 3.91731Z" fill="#D80027"/>
<path d="M5.51936 6.31773L4.47119 5.53689V4.43265L5.51936 3.65186H7.00179L8.04996 4.43265V5.53689L7.00179 6.31773H5.51936Z" fill="#F0F0F0"/>
<path d="M6.2606 3.65186H5.51936L4.47119 4.43265V4.97251H6.2606V3.65186Z" fill="#FF9811"/>
<path d="M6.26074 6.3168H7.00193L8.0501 5.53595V4.97266H6.26074V6.3168Z" fill="#FF9811"/>
<path d="M5.51936 20.3485L4.47119 19.5676V18.4635L5.51936 17.6826H7.00179L8.04996 18.4635V19.5676L7.00179 20.3485H5.51936Z" fill="#F0F0F0"/>
<path d="M6.2606 17.6826H5.51936L4.47119 18.4635V19.0033H6.2606V17.6826Z" fill="#FF9811"/>
<path d="M6.26074 20.3495H7.00193L8.0501 19.5686V19.0054H6.26074V20.3495Z" fill="#FF9811"/>
<path d="M5.51936 13.3324L4.47119 12.5515V11.4473L5.51936 10.6665H7.00178L8.04995 11.4473V12.5515L7.00178 13.3324H5.51936Z" fill="#496E2D"/>
<path d="M8.0867 15.0511H7.63014V14.5946H6.82787L6.26059 14.0273L5.69335 14.5946H4.89109V15.0511H4.43457V15.9642H4.89109V16.4207H5.69331L6.26063 16.988L6.82787 16.4207H7.63014V15.9642H8.0867V15.0511Z" fill="#496E2D"/>
<path d="M8.08719 8.03605H7.63062V7.57949H6.82836L6.26108 7.01221L5.69384 7.57949H4.89157V8.03605H4.43506V8.94908H4.89157V9.4056H5.69379L6.26112 9.97297L6.82836 9.4056H7.63062V8.94908H8.08719V8.03605Z" fill="#496E2D"/>
<path d="M6.78225 11.479H5.73877V12.5225H6.78225V11.479Z" fill="#D80027"/>
<path d="M6.26049 9.01463C6.54862 9.01463 6.7822 8.78105 6.7822 8.49291C6.7822 8.20477 6.54862 7.97119 6.26049 7.97119C5.97235 7.97119 5.73877 8.20477 5.73877 8.49291C5.73877 8.78105 5.97235 9.01463 6.26049 9.01463Z" fill="#D80027"/>
<path d="M6.26049 16.0307C6.54862 16.0307 6.7822 15.7972 6.7822 15.509C6.7822 15.2209 6.54862 14.9873 6.26049 14.9873C5.97235 14.9873 5.73877 15.2209 5.73877 15.509C5.73877 15.7972 5.97235 16.0307 6.26049 16.0307Z" fill="#D80027"/>
</g>
<defs>
<clipPath id="clip0_38_26014">
<rect width="24" height="24" fill="white"/>
</clipPath>
</defs>
</svg>
