<svg width="24" height="24" viewBox="0 0 24 24" fill="none" xmlns="http://www.w3.org/2000/svg">
<g clip-path="url(#clip0_38_26102)">
<path d="M20.9429 20.0004C22.8434 17.8773 23.9995 15.0741 23.9995 12.0004C23.9995 8.92672 22.8433 6.12345 20.9429 4.00039L11.9995 3.13086L3.05614 4.00039C1.15568 6.12345 -0.000488281 8.92672 -0.000488281 12.0004C-0.000488281 15.0741 1.15564 17.8773 3.05609 20.0004L11.9995 20.87L20.9429 20.0004Z" fill="#FFDA44"/>
<path d="M3.05664 4.00047H20.9434C18.7462 1.54577 15.5537 0.000488281 12 0.000488281C8.44628 0.000488281 5.25386 1.54577 3.05664 4.00047Z" fill="black"/>
<path d="M-0.000488281 12.0005L11.9995 13.044L23.9995 12.0005C23.9995 10.5978 23.7581 9.25167 23.3157 8.00049H0.683324C0.240965 9.25167 -0.000488281 10.5978 -0.000488281 12.0005Z" fill="#D80027"/>
<path d="M0.683324 15.9995H23.3158C23.7581 14.7483 23.9995 13.4022 23.9995 11.9995H-0.000488281C-0.000488281 13.4022 0.240965 14.7483 0.683324 15.9995Z" fill="black"/>
<path d="M20.9435 19.9995H3.05664C5.25386 22.4543 8.44628 23.9995 12.0001 23.9995C15.5538 23.9995 18.7463 22.4543 20.9435 19.9995Z" fill="#D80027"/>
<path d="M16.0043 12.0009C16.0043 14.2126 14.2117 16.0053 12 16.0053C9.78825 16.0053 7.99561 14.2126 7.99561 12.0009C7.99561 9.78922 9.78825 7.99658 12 7.99658C14.2117 7.99658 16.0043 9.78922 16.0043 12.0009Z" fill="#F0F0F0"/>
<path d="M13.4664 12.2036L11.9994 11.568C11.9994 11.568 12.3426 10.4288 12.3609 10.3508C12.3743 10.2939 12.3814 10.2345 12.3814 10.1734C12.3814 9.9573 12.2938 9.76164 12.1521 9.62008L12.521 9.25117C12.285 9.01516 11.9589 8.86914 11.5987 8.86914C11.2385 8.86914 10.9124 9.01511 10.6764 9.25117L11.0453 9.62008C10.9037 9.76169 10.8161 9.95734 10.8161 10.1734C10.8161 10.2525 10.8281 10.3286 10.8499 10.4006L10.2944 10.956H11.3039C11.3039 10.956 10.8866 11.5829 10.6587 12.0977C10.4308 12.6125 10.6618 13.2409 11.1884 13.475L11.4929 13.6104L11.9994 14.0864V14.6081L11.4777 15.1299H12.5212V14.0864L12.9973 13.6103H13.9821C13.9868 13.6005 13.9918 13.5909 13.9963 13.5809C14.2302 13.0543 13.993 12.4376 13.4664 12.2036Z" fill="black"/>
</g>
<defs>
<clipPath id="clip0_38_26102">
<rect width="24" height="24" fill="white"/>
</clipPath>
</defs>
</svg>
