<svg width="24" height="24" viewBox="0 0 24 24" fill="none" xmlns="http://www.w3.org/2000/svg">
<g clip-path="url(#clip0_38_26183)">
<path d="M12 24C18.6274 24 24 18.6274 24 12C24 5.37258 18.6274 0 12 0C5.37258 0 0 5.37258 0 12C0 18.6274 5.37258 24 12 24Z" fill="#F0F0F0"/>
<path d="M12.0002 23.999C17.1598 23.999 21.5583 20.7425 23.2538 16.1729H0.746582C2.4421 20.7425 6.84061 23.999 12.0002 23.999Z" fill="black"/>
<path d="M12.0002 0.000488281C6.84061 0.000488281 2.4421 3.25699 0.746582 7.8266H23.2538C21.5583 3.25699 17.1598 0.000488281 12.0002 0.000488281Z" fill="#D80027"/>
</g>
<defs>
<clipPath id="clip0_38_26183">
<rect width="24" height="24" fill="white"/>
</clipPath>
</defs>
</svg>
