<svg width="12" height="7" viewBox="0 0 12 7" fill="none" xmlns="http://www.w3.org/2000/svg">
<path d="M11.1162 0.876953C11.1162 0.977777 11.0858 1.05475 11.0078 1.13281L6.06348 6.07715C6.00956 6.13104 5.96758 6.15622 5.93945 6.16797H5.93848C5.90292 6.18275 5.86315 6.19141 5.81445 6.19141C5.76575 6.19141 5.72599 6.18275 5.69043 6.16797H5.68945C5.66133 6.15621 5.61934 6.13103 5.56543 6.07715L0.59668 1.1084C0.518908 1.03063 0.497049 0.963489 0.5 0.882813C0.503501 0.788784 0.535358 0.707921 0.621094 0.62207C0.699217 0.543947 0.776052 0.512697 0.876953 0.512695C0.977858 0.512695 1.05469 0.543945 1.13281 0.62207L5.81445 5.30371L10.5215 0.59668C10.5992 0.519014 10.6655 0.497072 10.7461 0.5C10.8404 0.503448 10.9218 0.536015 11.0078 0.62207C11.0856 0.699995 11.1161 0.776363 11.1162 0.876953Z" fill="#0A1F2C" stroke="#0A1F2C"/>
</svg>
