<svg width="24" height="24" viewBox="0 0 24 24" fill="none" xmlns="http://www.w3.org/2000/svg">
<path d="M22.2411 0C22.7076 0 23.155 0.185315 23.4848 0.515177C23.8147 0.845039 24 1.29243 24 1.75892V15.8303C24 16.2968 23.8147 16.7442 23.4848 17.0741C23.155 17.4039 22.7076 17.5892 22.2411 17.5892C21.7746 17.5892 21.3272 17.4039 20.9973 17.0741C20.6675 16.7442 20.4822 16.2968 20.4822 15.8303V6.00496L2.98087 23.5062C2.64913 23.8267 2.20482 24.0039 1.74364 23.9999C1.28245 23.9959 0.841295 23.8109 0.515176 23.4848C0.189058 23.1587 0.00407406 22.7175 6.64919e-05 22.2564C-0.00394107 21.7952 0.173348 21.3509 0.49375 21.0191L17.995 3.51785H8.16969C7.7032 3.51785 7.25581 3.33253 6.92594 3.00267C6.59608 2.67281 6.41077 2.22542 6.41077 1.75892C6.41077 1.29243 6.59608 0.845039 6.92594 0.515177C7.25581 0.185315 7.7032 0 8.16969 0H22.2411Z" fill="#0A1F2C"/>
</svg>
