<svg width="24" height="24" viewBox="0 0 24 24" fill="none" xmlns="http://www.w3.org/2000/svg">
<path d="M9.34909 14.2132H14.6761C14.7388 13.6966 14.7774 13.2767 14.7921 12.9537C14.8069 12.6307 14.8143 12.2962 14.8143 11.9502C14.8143 11.6169 14.8069 11.2981 14.7921 10.9937C14.7774 10.6894 14.7388 10.2789 14.6761 9.76223H9.34909C9.28242 10.2789 9.24075 10.6894 9.22409 10.9937C9.20742 11.2981 9.19909 11.6169 9.19909 11.9502C9.19909 12.2962 9.20742 12.6307 9.22409 12.9537C9.24075 13.2767 9.28242 13.6966 9.34909 14.2132Z" fill="#0A1F2C"/>
<path d="M16.1761 14.2132H20.1403C20.253 13.8132 20.3312 13.4434 20.3748 13.1037C20.4185 12.7641 20.4403 12.3796 20.4403 11.9502C20.4403 11.5169 20.4185 11.1439 20.3748 10.8312C20.3312 10.5186 20.253 10.1622 20.1403 9.76223H16.2011C16.2433 10.3496 16.2727 10.7944 16.2893 11.0967C16.306 11.3991 16.3143 11.6836 16.3143 11.9502C16.3143 12.3129 16.3018 12.6557 16.2768 12.9787C16.2518 13.3017 16.2183 13.7132 16.1761 14.2132Z" fill="#0A1F2C"/>
<path d="M15.9261 8.27423H19.6463C19.1003 7.13206 18.3502 6.17864 17.3958 5.41398C16.4415 4.64931 15.3433 4.11064 14.1011 3.79798C14.5218 4.41064 14.8769 5.07431 15.1666 5.78898C15.4563 6.50364 15.7094 7.33206 15.9261 8.27423Z" fill="#0A1F2C"/>
<path d="M9.62409 8.27423H14.4261C14.2468 7.39873 13.9404 6.54848 13.5071 5.72348C13.0738 4.89848 12.5694 4.17331 11.9941 3.54798C11.4728 3.99398 11.0298 4.58164 10.6651 5.31098C10.3004 6.04048 9.95342 7.02823 9.62409 8.27423Z" fill="#0A1F2C"/>
<path d="M4.34784 8.27423H8.09909C8.28242 7.38206 8.51275 6.58281 8.79009 5.87648C9.06742 5.17014 9.42475 4.48564 9.86209 3.82298C8.61609 4.13564 7.52942 4.66498 6.60209 5.41098C5.67459 6.15714 4.92317 7.11156 4.34784 8.27423Z" fill="#0A1F2C"/>
<path d="M3.85384 14.2132H7.79909C7.74909 13.7632 7.71992 13.3601 7.71159 13.0037C7.70325 12.6474 7.69909 12.2962 7.69909 11.9502C7.69909 11.5336 7.70742 11.1647 7.72409 10.8437C7.74075 10.5227 7.77409 10.1622 7.82409 9.76223H3.85384C3.73717 10.1622 3.658 10.5186 3.61634 10.8312C3.57467 11.1439 3.55384 11.5169 3.55384 11.9502C3.55384 12.3796 3.57467 12.7641 3.61634 13.1037C3.658 13.4434 3.73717 13.8132 3.85384 14.2132Z" fill="#0A1F2C"/>
<path d="M9.88709 20.2025C9.46642 19.5771 9.10909 18.8978 8.81509 18.1645C8.52109 17.4311 8.27409 16.6081 8.07409 15.6952H4.34784C4.97317 16.8747 5.70059 17.8 6.53009 18.471C7.35942 19.142 8.47842 19.7191 9.88709 20.2025Z" fill="#0A1F2C"/>
<path d="M11.9941 20.5025C12.5654 19.9065 13.0459 19.223 13.4356 18.452C13.8253 17.6808 14.1471 16.7619 14.4011 15.6952H9.62409C9.85342 16.6952 10.1629 17.5933 10.5526 18.3895C10.9423 19.1855 11.4228 19.8898 11.9941 20.5025Z" fill="#0A1F2C"/>
<path d="M14.1261 20.1775C15.3183 19.7981 16.3915 19.2261 17.3458 18.4615C18.3002 17.6968 19.067 16.7747 19.6463 15.6952H15.9511C15.7344 16.5914 15.4813 17.4061 15.1916 18.1395C14.9019 18.8728 14.5468 19.5521 14.1261 20.1775Z" fill="#0A1F2C"/>
</svg>
