<svg width="24" height="24" viewBox="0 0 24 24" fill="none" xmlns="http://www.w3.org/2000/svg">
<path d="M7.14844 20.298V17.9177H5.75019C5.50985 17.9177 5.30785 17.8354 5.14419 17.6707C4.98035 17.5062 4.89844 17.3032 4.89844 17.0617C4.89844 16.8201 4.98035 16.6184 5.14419 16.4567C5.30785 16.2952 5.50985 16.2145 5.75019 16.2145H7.14844V13.554H5.75019C5.50985 13.554 5.30785 13.4717 5.14419 13.3072C4.98035 13.1427 4.89844 12.9398 4.89844 12.6985C4.89844 12.4571 4.98035 12.2546 5.14419 12.0907C5.30785 11.9267 5.50985 11.8447 5.75019 11.8447H7.14844V3.70248C7.14844 3.46248 7.23035 3.25956 7.39419 3.09373C7.55785 2.92773 7.75985 2.84473 8.00019 2.84473H13.7502C15.2397 2.84473 16.504 3.36523 17.5432 4.40623C18.5824 5.44706 19.1019 6.71356 19.1019 8.20573C19.1019 9.69606 18.5824 10.9601 17.5432 11.9977C16.504 13.0352 15.2397 13.554 13.7502 13.554H8.85194V16.2145H12.2502C12.4905 16.2145 12.6925 16.2967 12.8562 16.4612C13.02 16.6257 13.1019 16.8288 13.1019 17.0705C13.1019 17.312 13.02 17.5136 12.8562 17.6752C12.6925 17.8369 12.4905 17.9177 12.2502 17.9177H8.85194V20.298C8.85194 20.5385 8.7696 20.7406 8.60494 20.9042C8.44044 21.0679 8.23735 21.1497 7.99569 21.1497C7.75419 21.1497 7.5526 21.0679 7.39094 20.9042C7.22927 20.7406 7.14844 20.5385 7.14844 20.298ZM8.85194 11.8447H13.7504C14.7724 11.8447 15.6359 11.4933 16.3409 10.7905C17.0459 10.0876 17.3984 9.22506 17.3984 8.20273C17.3984 7.18039 17.0464 6.31673 16.3424 5.61173C15.6383 4.90656 14.7742 4.55398 13.7502 4.55398H8.85194V11.8447Z" fill="white"/>
</svg>
