<svg width="24" height="24" viewBox="0 0 24 24" fill="none" xmlns="http://www.w3.org/2000/svg">
<path d="M0.827148 19.4415V16.1915C0.827148 15.6803 1.0089 15.2439 1.3724 14.8822C1.73607 14.5207 2.17148 14.34 2.67865 14.34H6.23365C6.52482 14.34 6.79465 14.4068 7.04315 14.5405C7.29148 14.6742 7.50331 14.86 7.67865 15.098C8.16998 15.81 8.79665 16.3617 9.55865 16.753C10.3205 17.1443 11.1344 17.34 12.0004 17.34C12.8624 17.34 13.6753 17.1443 14.4391 16.753C15.2031 16.3617 15.8411 15.81 16.3531 15.098C16.5205 14.86 16.7251 14.6742 16.9671 14.5405C17.2093 14.4068 17.478 14.34 17.7731 14.34H21.3281C21.8393 14.34 22.2757 14.5207 22.6374 14.8822C22.9989 15.2439 23.1796 15.6803 23.1796 16.1915V19.4415C23.1796 19.6862 23.0989 19.8892 22.9374 20.0507C22.7757 20.2124 22.5726 20.2932 22.3281 20.2932H17.3281C17.0835 20.2932 16.8804 20.2124 16.7189 20.0507C16.5572 19.8892 16.4764 19.6862 16.4764 19.4415V17.2822C15.8724 17.8124 15.1859 18.2235 14.4169 18.5155C13.6479 18.8075 12.8424 18.9535 12.0004 18.9535C11.1624 18.9535 10.3621 18.8085 9.5994 18.5185C8.83673 18.2285 8.14707 17.8164 7.5304 17.2822V19.4415C7.5304 19.6862 7.44956 19.8892 7.2879 20.0507C7.12623 20.2124 6.92315 20.2932 6.67865 20.2932H1.67865C1.43415 20.2932 1.23107 20.2124 1.0694 20.0507C0.907898 19.8892 0.827148 19.6862 0.827148 19.4415ZM12.0004 15.7502C11.4291 15.7502 10.8805 15.6167 10.3546 15.3497C9.82898 15.0827 9.40348 14.7115 9.07815 14.236C8.79148 13.8288 8.45173 13.5086 8.0589 13.2752C7.6659 13.0419 7.23681 12.8836 6.77165 12.8002C7.28682 12.3042 8.06207 11.9199 9.0974 11.6472C10.1327 11.3746 11.1004 11.2382 12.0004 11.2382C12.9044 11.2382 13.8772 11.3746 14.9189 11.6472C15.9606 11.9199 16.741 12.3042 17.2601 12.8002C16.791 12.8836 16.3599 13.0419 15.9669 13.2752C15.5741 13.5086 15.2363 13.8288 14.9536 14.236C14.6283 14.7075 14.2008 15.0777 13.6711 15.3467C13.1413 15.6157 12.5844 15.7502 12.0004 15.7502ZM4.0004 12.4105C3.2384 12.4105 2.58257 12.1357 2.0329 11.586C1.4834 11.0365 1.20865 10.3787 1.20865 9.61274C1.20865 8.83807 1.4834 8.17907 2.0329 7.63574C2.58257 7.09257 3.2384 6.82099 4.0004 6.82099C4.77907 6.82099 5.44007 7.09257 5.9834 7.63574C6.52657 8.17907 6.79815 8.83807 6.79815 9.61274C6.79815 10.3787 6.52657 11.0365 5.9834 11.586C5.44007 12.1357 4.77907 12.4105 4.0004 12.4105ZM20.0004 12.4105C19.2384 12.4105 18.5826 12.1357 18.0329 11.586C17.4834 11.0365 17.2086 10.3787 17.2086 9.61274C17.2086 8.83807 17.4834 8.17907 18.0329 7.63574C18.5826 7.09257 19.2384 6.82099 20.0004 6.82099C20.7791 6.82099 21.4401 7.09257 21.9834 7.63574C22.5266 8.17907 22.7981 8.83807 22.7981 9.61274C22.7981 10.3787 22.5266 11.0365 21.9834 11.586C21.4401 12.1357 20.7791 12.4105 20.0004 12.4105ZM12.0004 9.30899C11.2384 9.30899 10.5826 9.03315 10.0329 8.48149C9.4834 7.92982 9.20865 7.27299 9.20865 6.51099C9.20865 5.73249 9.4834 5.07257 10.0329 4.53124C10.5826 3.9899 11.2384 3.71924 12.0004 3.71924C12.7791 3.71924 13.4401 3.9899 13.9834 4.53124C14.5266 5.07257 14.7981 5.73249 14.7981 6.51099C14.7981 7.27299 14.5266 7.92982 13.9834 8.48149C13.4401 9.03315 12.7791 9.30899 12.0004 9.30899Z" fill="white"/>
</svg>
