<svg width="12" height="16" viewBox="0 0 12 16" fill="none" xmlns="http://www.w3.org/2000/svg">
<path d="M6.63733 15.7462C6.4683 15.9087 6.23905 16 6 16C5.76095 16 5.5317 15.9087 5.36267 15.7462L0.263993 10.8454C0.0949621 10.6829 0 10.4626 0 10.2328C0 10.003 0.0949612 9.78264 0.263993 9.62017C0.433024 9.4577 0.662282 9.36642 0.901328 9.36642C1.14038 9.36642 1.36963 9.4577 1.53866 9.62017L5.09881 13.0422L5.09881 0.851302C5.10292 0.624172 5.19967 0.407678 5.36823 0.24845C5.53679 0.0892218 5.76367 1.15469e-08 6 0C6.23634 -1.15469e-08 6.46321 0.0892227 6.63177 0.248451C6.80033 0.407679 6.89708 0.624171 6.90119 0.851302L6.90119 13.0422L10.4613 9.62017C10.6304 9.4577 10.8596 9.36642 11.0987 9.36642C11.3377 9.36642 11.567 9.4577 11.736 9.62017C11.905 9.78264 12 10.003 12 10.2328C12 10.4626 11.905 10.6829 11.736 10.8454L6.63733 15.7462Z" fill="white"/>
</svg>
