<svg width="24" height="24" viewBox="0 0 24 24" fill="none" xmlns="http://www.w3.org/2000/svg">
<path d="M9.89063 19.779L16.7819 11.4878H12.3299L13.2119 4.46929L6.95863 13.5058H10.7786L9.89063 19.779ZM8.86838 15.1673H5.40088C5.05921 15.1673 4.80705 15.016 4.64438 14.7133C4.48171 14.4108 4.50405 14.1166 4.71138 13.8308L13.3884 1.30804C13.5297 1.1127 13.7064 0.980704 13.9184 0.912037C14.1304 0.84337 14.3423 0.852703 14.5541 0.940037C14.7661 1.02337 14.9345 1.16512 15.0591 1.36529C15.1838 1.56529 15.2295 1.77679 15.1961 1.99979L14.2091 9.82654H18.5074C18.874 9.82654 19.1315 9.98812 19.2796 10.3113C19.428 10.6345 19.3901 10.937 19.1661 11.2188L9.65813 22.6368C9.50946 22.8138 9.3268 22.9287 9.11013 22.9815C8.89347 23.0344 8.68555 23.013 8.48638 22.9175C8.29105 22.826 8.13721 22.6846 8.02488 22.4933C7.91255 22.3021 7.87305 22.0924 7.90638 21.864L8.86838 15.1673Z" fill="#0A1F2C"/>
<path d="M9.89063 19.779L16.7819 11.4878H12.3299L13.2119 4.46929L6.95863 13.5058H10.7786L9.89063 19.779Z" fill="#0A1F2C"/>
</svg>
