<svg width="24" height="24" viewBox="0 0 24 24" fill="none" xmlns="http://www.w3.org/2000/svg">
<path d="M10.1176 13.6067L3.38934 16.327C3.024 16.4721 2.67625 16.4358 2.34609 16.218C2.01575 16 1.85059 15.6854 1.85059 15.2742V14.7882C1.85059 14.5929 1.89425 14.4185 1.98159 14.265C2.06892 14.1113 2.18725 13.9785 2.33659 13.8665L10.1176 8.39148V3.72748C10.1176 3.21614 10.3025 2.77456 10.6723 2.40273C11.0423 2.03073 11.4849 1.84473 12.0001 1.84473C12.5153 1.84473 12.9578 2.03073 13.3278 2.40273C13.6977 2.77456 13.8826 3.21614 13.8826 3.72748V8.39148L21.6696 13.8665C21.8149 13.9785 21.9323 14.1113 22.0216 14.265C22.1109 14.4185 22.1556 14.5929 22.1556 14.7882V15.2742C22.1556 15.6854 21.9894 16 21.6571 16.218C21.3249 16.4358 20.9762 16.4721 20.6108 16.327L13.8826 13.6067V17.7275L16.5838 19.6095C16.7125 19.6968 16.8141 19.81 16.8886 19.949C16.9633 20.0878 17.0006 20.2319 17.0006 20.3812V20.892C17.0006 21.2073 16.8772 21.4594 16.6303 21.6482C16.3833 21.8372 16.1063 21.8861 15.7991 21.7947L12.0001 20.6387L8.20109 21.7947C7.89392 21.8861 7.61684 21.8372 7.36984 21.6482C7.123 21.4594 6.99959 21.2073 6.99959 20.892V20.3812C6.99959 20.2319 7.03692 20.0878 7.11159 19.949C7.18609 19.81 7.28767 19.6968 7.41634 19.6095L10.1176 17.7275V13.6067Z" fill="white"/>
</svg>
