<svg width="512" height="512" viewBox="0 0 512 512" fill="none" xmlns="http://www.w3.org/2000/svg">
<g clip-path="url(#clip0_106_5609)">
<path d="M256 512.207C397.385 512.207 512 397.592 512 256.207C512 114.822 397.385 0.207031 256 0.207031C114.615 0.207031 0 114.822 0 256.207C0 397.592 114.615 512.207 256 512.207Z" fill="url(#paint0_radial_106_5609)"/>
<path opacity="0.9" d="M256 512.207C397.385 512.207 512 397.592 512 256.207C512 114.822 397.385 0.207031 256 0.207031C114.615 0.207031 0 114.822 0 256.207C0 397.592 114.615 512.207 256 512.207Z" stroke="white" stroke-opacity="0.1" stroke-width="1.34737"/>
<mask id="mask0_106_5609" style="mask-type:luminance" maskUnits="userSpaceOnUse" x="0" y="0" width="512" height="513">
<path d="M256 512.207C397.385 512.207 512 397.592 512 256.207C512 114.822 397.385 0.207031 256 0.207031C114.615 0.207031 0 114.822 0 256.207C0 397.592 114.615 512.207 256 512.207Z" fill="white"/>
</mask>
<g mask="url(#mask0_106_5609)">
<g opacity="0.2">
<path d="M256 512.207C379.03 512.207 478.765 397.592 478.765 256.207C478.765 114.822 379.03 0.207031 256 0.207031C132.971 0.207031 33.2354 114.822 33.2354 256.207C33.2354 397.592 132.971 512.207 256 512.207Z" stroke="white" stroke-opacity="0.8" stroke-width="0.898246"/>
<path d="M256 512.207C341.327 512.207 410.498 397.592 410.498 256.207C410.498 114.822 341.327 0.207031 256 0.207031C170.673 0.207031 101.502 114.822 101.502 256.207C101.502 397.592 170.673 512.207 256 512.207Z" stroke="white" stroke-opacity="0.8" stroke-width="0.898246"/>
<path d="M256 512.207C298.168 512.207 332.351 397.592 332.351 256.207C332.351 114.822 298.168 0.207031 256 0.207031C213.833 0.207031 179.649 114.822 179.649 256.207C179.649 397.592 213.833 512.207 256 512.207Z" stroke="white" stroke-opacity="0.8" stroke-width="0.898246"/>
<path d="M256 340.642C397.385 340.642 512 302.839 512 256.207C512 209.575 397.385 171.772 256 171.772C114.615 171.772 0 209.575 0 256.207C0 302.839 114.615 340.642 256 340.642Z" stroke="white" stroke-opacity="0.8" stroke-width="0.898246"/>
<path d="M256 405.316C397.385 405.316 512 338.557 512 256.207C512 173.856 397.385 107.098 256 107.098C114.615 107.098 0 173.856 0 256.207C0 338.557 114.615 405.316 256 405.316Z" stroke="white" stroke-opacity="0.8" stroke-width="0.898246"/>
<path d="M256 462.803C397.385 462.803 512 370.307 512 256.207C512 142.107 397.385 49.6104 256 49.6104C114.615 49.6104 0 142.107 0 256.207C0 370.307 114.615 462.803 256 462.803Z" stroke="white" stroke-opacity="0.8" stroke-width="0.898246"/>
</g>
</g>
</g>
<defs>
<radialGradient id="paint0_radial_106_5609" cx="0" cy="0" r="1" gradientUnits="userSpaceOnUse" gradientTransform="translate(180.547 123.267) rotate(50) scale(431.158)">
<stop stop-color="white" stop-opacity="0"/>
<stop offset="0.42" stop-color="#D5EBE4" stop-opacity="0.2"/>
<stop offset="1" stop-color="white" stop-opacity="0"/>
</radialGradient>
<clipPath id="clip0_106_5609">
<rect width="512" height="512" fill="white"/>
</clipPath>
</defs>
</svg>
