<svg width="24" height="24" viewBox="0 0 24 24" fill="none" xmlns="http://www.w3.org/2000/svg">
<path fill-rule="evenodd" clip-rule="evenodd" d="M12.0001 20.377C13.8968 19.7237 15.4453 18.5269 16.6458 16.7865C17.8462 15.046 18.4463 13.0927 18.4463 10.9265V6.06654L12.0001 3.63454L5.55384 6.06954V10.9238C5.55384 13.0918 6.154 15.046 7.35434 16.7865C8.55484 18.5269 10.1034 19.7237 12.0001 20.377ZM9.01809 11.1698L10.9751 13.127L15.0011 9.10079C15.1409 8.95963 15.3235 8.88488 15.5488 8.87654C15.7743 8.86821 15.9619 8.93463 16.1116 9.07579C16.2611 9.21712 16.3358 9.39604 16.3358 9.61254C16.3358 9.82921 16.2569 10.0163 16.0991 10.1738L11.5028 14.7698C11.3328 14.9438 11.1327 15.0308 10.9023 15.0308C10.6718 15.0308 10.4702 14.9438 10.2973 14.7698L7.87009 12.3178C7.71625 12.1543 7.63934 11.9618 7.63934 11.7403C7.63934 11.519 7.71625 11.3306 7.87009 11.1753C8.02809 11.0178 8.22042 10.939 8.44709 10.939C8.67375 10.939 8.86409 11.016 9.01809 11.1698Z" fill="#0A1F2C"/>
<path fill-rule="evenodd" clip-rule="evenodd" d="M11.7173 22.0153C11.8052 22.034 11.8994 22.0433 12.0001 22.0433C12.1008 22.0433 12.195 22.034 12.2828 22.0153C12.3708 21.9966 12.4568 21.9686 12.5408 21.9313C14.8775 21.148 16.7308 19.7257 18.1006 17.6645C19.4706 15.6032 20.1556 13.3557 20.1556 10.922V6.06654C20.1556 5.70188 20.053 5.37221 19.8478 5.07754C19.6427 4.78288 19.3744 4.57179 19.0431 4.44429L12.5968 2.03729C12.3935 1.96263 12.1946 1.92529 12.0001 1.92529C11.8056 1.92529 11.6067 1.96263 11.4033 2.03729L4.95709 4.44429C4.62575 4.57179 4.3585 4.78288 4.15534 5.07754C3.95217 5.37221 3.85059 5.70188 3.85059 6.06654V10.922C3.85059 13.3557 4.53459 15.6032 5.90259 17.6645C7.27042 19.7257 9.12267 21.148 11.4593 21.9313C11.5433 21.9686 11.6293 21.9966 11.7173 22.0153ZM16.6458 16.7865C15.4453 18.5269 13.8968 19.7237 12.0001 20.377C10.1034 19.7237 8.55484 18.5269 7.35434 16.7865C6.154 15.046 5.55384 13.0918 5.55384 10.9238V6.06954L12.0001 3.63454L18.4463 6.06654V10.9265C18.4463 13.0927 17.8462 15.046 16.6458 16.7865Z" fill="#0A1F2C"/>
</svg>
