<svg preserveAspectRatio="none" width="100%" height="100%" overflow="visible" style="display: block;" viewBox="0 0 56 56" fill="none" xmlns="http://www.w3.org/2000/svg">
<g id="logo-flow-transfer">
<path id="Vector" d="M17.2812 19.3594C18.9219 16.5156 20.8906 14.875 24.6094 14.875H37.4062C38.5 14.875 39.1562 16.0781 38.6094 16.9531L34.3438 24.1719C34.0156 24.7188 33.4688 25.0469 32.8125 25.0469H24.5C22.9688 25.0469 21.875 25.7031 21.1094 27.0156L15.6406 36.4219C15.3125 37.0781 14.6562 37.4062 13.8906 37.4062H9.40625C8.09375 37.4062 7.32812 35.9844 7.98438 34.8906L17.2812 19.3594Z" fill="var(--fill-0, #091D29)"/>
<path id="Vector_2" d="M38.7189 36.6406C37.0783 39.4844 35.1096 41.125 31.3908 41.125H18.5939C17.5002 41.125 16.8439 39.9219 17.3908 39.0469L21.6564 31.8281C21.9846 31.2812 22.5314 30.9531 23.1877 30.9531H31.5002C33.0314 30.9531 34.1252 30.2969 34.8908 28.9844L40.3596 19.5781C40.6877 18.9219 41.3439 18.5938 42.1096 18.5938H46.5939C47.9064 18.5938 48.6721 20.0156 48.0158 21.1094L38.7189 36.6406Z" fill="var(--fill-0, #068760)"/>
</g>
</svg>
