<svg preserveAspectRatio="none" width="100%" height="100%" overflow="visible" style="display: block;" viewBox="0 0 20 20" fill="none" xmlns="http://www.w3.org/2000/svg">
<g id="Plus">
<g id="Vector">
<path d="M2.98023e-07 10C2.98023e-07 9.46553 0.433273 9.03226 0.967743 9.03226H19.0323C19.5667 9.03226 20 9.46553 20 10C20 10.5345 19.5667 10.9677 19.0323 10.9677H0.967744C0.433274 10.9677 2.98023e-07 10.5345 2.98023e-07 10Z" fill="var(--fill-0, white)"/>
<path d="M2.98023e-07 10C2.98023e-07 9.46553 0.433273 9.03226 0.967743 9.03226H19.0323C19.5667 9.03226 20 9.46553 20 10C20 10.5345 19.5667 10.9677 19.0323 10.9677H0.967744C0.433274 10.9677 2.98023e-07 10.5345 2.98023e-07 10Z" fill="var(--fill-0, white)"/>
<path d="M10 20C9.46553 20 9.03226 19.5667 9.03226 19.0323V0.967744C9.03226 0.433275 9.46553 5.96046e-07 10 5.96046e-07C10.5345 5.96046e-07 10.9677 0.433274 10.9677 0.967743V19.0323C10.9677 19.5667 10.5345 20 10 20Z" fill="var(--fill-0, white)"/>
<path d="M10 20C9.46553 20 9.03226 19.5667 9.03226 19.0323V0.967744C9.03226 0.433275 9.46553 5.96046e-07 10 5.96046e-07C10.5345 5.96046e-07 10.9677 0.433274 10.9677 0.967743V19.0323C10.9677 19.5667 10.5345 20 10 20Z" fill="var(--fill-0, white)"/>
</g>
</g>
</svg>
