<svg width="16" height="12" viewBox="0 0 16 12" fill="none" xmlns="http://www.w3.org/2000/svg">
<path d="M15.7462 5.36267C15.9087 5.5317 16 5.76095 16 6C16 6.23905 15.9087 6.4683 15.7462 6.63733L10.8454 11.736C10.6829 11.905 10.4626 12 10.2328 12C10.003 12 9.78264 11.905 9.62017 11.736C9.4577 11.567 9.36642 11.3377 9.36642 11.0987C9.36642 10.8596 9.4577 10.6304 9.62017 10.4613L13.0422 6.90119H0.851302C0.624172 6.89708 0.407678 6.80033 0.24845 6.63177C0.0892218 6.46321 1.15469e-08 6.23633 0 6C-1.15469e-08 5.76366 0.0892227 5.53679 0.248451 5.36823C0.407679 5.19967 0.624171 5.10292 0.851302 5.09881H13.0422L9.62017 1.53866C9.4577 1.36963 9.36642 1.14037 9.36642 0.901326C9.36642 0.66228 9.4577 0.433024 9.62017 0.263992C9.78264 0.0949606 10.003 -1.21509e-08 10.2328 0C10.4626 1.21509e-08 10.6829 0.0949605 10.8454 0.263992L15.7462 5.36267Z" fill="white"/>
</svg>
