<svg width="24" height="24" viewBox="0 0 24 24" fill="none" xmlns="http://www.w3.org/2000/svg">
<path d="M5.09502 17.1961L7.43752 19.5383C7.60752 19.7083 7.69252 19.9072 7.69252 20.1351C7.69252 20.3631 7.60752 20.562 7.43752 20.7318C7.26369 20.9058 7.06177 20.9918 6.83177 20.9898C6.60194 20.9878 6.40402 20.9018 6.23802 20.7318L2.44727 16.9411C2.35594 16.8497 2.28961 16.7555 2.24827 16.6583C2.20711 16.561 2.18652 16.4543 2.18652 16.3383C2.18652 16.2265 2.20711 16.1219 2.24827 16.0246C2.28961 15.9272 2.35594 15.8329 2.44727 15.7416L6.26302 11.9258C6.43302 11.756 6.63194 11.6711 6.85977 11.6711C7.08777 11.6711 7.28669 11.756 7.45652 11.9258C7.62652 12.0958 7.71252 12.2947 7.71452 12.5226C7.71652 12.7506 7.63252 12.9495 7.46252 13.1193L5.09502 15.4868H20.2978C20.5424 15.4868 20.7465 15.5676 20.91 15.7291C21.0737 15.8907 21.1555 16.0938 21.1555 16.3383C21.1555 16.587 21.0737 16.7921 20.91 16.9536C20.7465 17.1152 20.5424 17.1961 20.2978 17.1961H5.09502ZM18.9108 8.5378H3.70227C3.45761 8.5378 3.25452 8.45705 3.09302 8.29555C2.93136 8.13388 2.85052 7.9288 2.85052 7.6803C2.85052 7.43563 2.93136 7.23255 3.09302 7.07105C3.25452 6.90938 3.45761 6.82855 3.70227 6.82855H18.9108L16.5435 4.4613C16.3695 4.2913 16.2825 4.09238 16.2825 3.86455C16.2825 3.63655 16.3695 3.43563 16.5435 3.2618C16.7134 3.0918 16.9133 3.0078 17.1433 3.0098C17.3731 3.0118 17.571 3.0958 17.737 3.2618L21.5588 7.08355C21.6461 7.17488 21.7104 7.26913 21.7518 7.3663C21.7929 7.46363 21.8135 7.5683 21.8135 7.6803C21.8135 7.79613 21.7929 7.90272 21.7518 8.00005C21.7104 8.09738 21.6461 8.18972 21.5588 8.27705L17.762 12.0738C17.592 12.2436 17.3931 12.3286 17.1653 12.3286C16.9373 12.3286 16.7384 12.2436 16.5685 12.0738C16.3985 11.9038 16.3125 11.7049 16.3105 11.4771C16.3085 11.2491 16.3945 11.0501 16.5685 10.8803L18.9108 8.5378Z" fill="white"/>
</svg>
