<svg width="24" height="24" viewBox="0 0 24 24" fill="none" xmlns="http://www.w3.org/2000/svg">
<path d="M9.67909 2.4998C9.44475 2.4998 9.25009 2.42055 9.09509 2.26205C8.94009 2.10355 8.86259 1.90739 8.86259 1.67356C8.86259 1.43989 8.94009 1.2463 9.09509 1.0928C9.25009 0.939137 9.44475 0.862305 9.67909 0.862305H14.3211C14.5554 0.862305 14.7501 0.940221 14.9051 1.09605C15.0601 1.25189 15.1376 1.44739 15.1376 1.68255C15.1376 1.91622 15.0601 2.1108 14.9051 2.2663C14.7501 2.42197 14.5554 2.4998 14.3211 2.4998H9.67909ZM12.0033 13.8003C12.2353 13.8003 12.4288 13.7221 12.5836 13.5658C12.7384 13.4095 12.8158 13.2157 12.8158 12.9846V8.85405C12.8158 8.62305 12.7373 8.4293 12.5803 8.2728C12.4235 8.11647 12.229 8.0383 11.9968 8.0383C11.7648 8.0383 11.5714 8.11647 11.4166 8.2728C11.2618 8.4293 11.1843 8.62305 11.1843 8.85405V12.9846C11.1843 13.2157 11.2628 13.4095 11.4198 13.5658C11.5767 13.7221 11.7712 13.8003 12.0033 13.8003ZM11.9986 22.2498C10.7404 22.2498 9.55667 22.0086 8.44734 21.5263C7.338 21.044 6.36834 20.3881 5.53834 19.5588C4.7085 18.7296 4.05309 17.7606 3.57209 16.6516C3.09109 15.5426 2.85059 14.3591 2.85059 13.1013C2.85059 11.8435 3.09125 10.6598 3.57259 9.55031C4.05392 8.44097 4.70959 7.47097 5.53959 6.6403C6.36942 5.80964 7.339 5.15272 8.44834 4.66955C9.55784 4.18639 10.7418 3.9448 12.0001 3.9448C13.1248 3.9448 14.1838 4.1323 15.1771 4.5073C16.1703 4.8823 17.0522 5.40514 17.8228 6.0758L18.5788 5.3198C18.7448 5.15397 18.9368 5.07105 19.1546 5.07105C19.3726 5.07105 19.5646 5.15497 19.7306 5.3228C19.8964 5.4908 19.9793 5.68381 19.9793 5.90181C19.9793 6.11964 19.8964 6.31155 19.7306 6.47755L18.9806 7.22755C19.5846 7.90222 20.0981 8.71855 20.5211 9.67655C20.9441 10.6344 21.1556 11.7756 21.1556 13.1003C21.1556 14.359 20.9143 15.5432 20.4316 16.6531C19.9491 17.7629 19.2926 18.7321 18.4621 19.5608C17.6316 20.3895 16.6613 21.0448 15.5511 21.5268C14.4409 22.0088 13.2568 22.2498 11.9986 22.2498ZM11.9991 20.5406C14.0711 20.5406 15.8303 19.8187 17.2768 18.3751C18.7232 16.9314 19.4463 15.1735 19.4463 13.1013C19.4463 11.0293 18.7235 9.27014 17.2778 7.82381C15.832 6.37731 14.0731 5.65405 12.0011 5.65405C9.92909 5.65405 8.16984 6.37697 6.72334 7.8228C5.277 9.26847 4.55384 11.0273 4.55384 13.0993C4.55384 15.1713 5.27667 16.9296 6.72234 18.3741C8.16817 19.8184 9.92709 20.5406 11.9991 20.5406Z" fill="#0A1F2C"/>
</svg>
