<svg width="29" height="19" viewBox="0 0 29 19" fill="none" xmlns="http://www.w3.org/2000/svg">
<path d="M5.60546 0.000976562H12.7497C13.747 0.000976562 14.3672 0.837747 14.1346 1.86776L10.8084 16.5682C10.5737 17.5947 9.57522 18.4322 8.57725 18.4322H1.4337C0.437821 18.4322 -0.183842 17.5947 0.0488026 16.5682L3.37635 1.86776C3.609 0.837747 4.60697 0.000976562 5.60546 0.000976562Z" fill="#E21836"/>
<path d="M12.1548 0H20.3705C21.3676 0 20.918 0.836771 20.6834 1.86678L17.3578 16.5673C17.1245 17.5937 17.1972 18.4312 16.1981 18.4312H7.98236C6.98317 18.4312 6.36482 17.5937 6.59955 16.5673L9.92501 1.86678C10.1611 0.836771 11.157 0 12.1548 0Z" fill="#00447C"/>
<path d="M20.0451 0H27.1893C28.188 0 28.8083 0.836771 28.5737 1.86678L25.2481 16.5673C25.0134 17.5937 24.0142 18.4312 23.0157 18.4312H15.8747C14.8756 18.4312 14.2558 17.5937 14.4898 16.5673L17.816 1.86678C18.0486 0.836771 19.0459 0 20.0451 0Z" fill="#007B84"/>
<path d="M7.47116 4.71101C6.73648 4.71872 6.51951 4.71101 6.45021 4.69416C6.42356 4.82448 5.9278 7.17866 5.92641 7.18064C5.81966 7.65692 5.742 7.99643 5.47818 8.21566C5.32843 8.34312 5.1536 8.4046 4.9509 8.4046C4.6251 8.4046 4.43529 8.23807 4.40342 7.92222L4.39733 7.81377C4.39733 7.81377 4.49658 7.1758 4.49658 7.17221C4.49658 7.17221 5.0169 5.02687 5.11006 4.74328C5.11494 4.72715 5.11633 4.71872 5.11755 4.71101C4.10478 4.72016 3.92525 4.71101 3.91288 4.69416C3.90609 4.71729 3.88102 4.8503 3.88102 4.8503L3.34973 7.26829L3.30411 7.47336L3.21582 8.14414C3.21582 8.34312 3.25378 8.50552 3.32936 8.64283C3.5714 9.07825 4.26185 9.1435 4.65243 9.1435C5.15569 9.1435 5.62777 9.03343 5.94678 8.83249C6.50053 8.49566 6.64541 7.96919 6.77462 7.50133L6.83452 7.2613C6.83452 7.2613 7.37051 5.03314 7.46158 4.74328C7.46507 4.72715 7.46646 4.71872 7.47116 4.71101ZM9.29483 6.50849C9.16562 6.50849 8.92949 6.54076 8.71739 6.64778C8.64043 6.68847 8.56764 6.73543 8.49084 6.78222L8.56015 6.52463L8.52219 6.48125C8.0724 6.575 7.97175 6.58755 7.55626 6.64778L7.52143 6.67162C7.4732 7.08337 7.43036 7.39295 7.25152 8.20229C7.18344 8.50057 7.11274 8.80173 7.04187 9.09929L7.06102 9.13712C7.48678 9.11399 7.61599 9.11399 7.98603 9.12027L8.01598 9.08674C8.06299 8.83883 8.06909 8.78075 8.17322 8.27865C8.22215 8.0406 8.3242 7.51753 8.37452 7.33128C8.46699 7.28719 8.55823 7.24381 8.6453 7.24381C8.8527 7.24381 8.82745 7.43005 8.81944 7.50427C8.81056 7.62885 8.73498 8.03576 8.65749 8.38513L8.60577 8.61064C8.56973 8.77717 8.5302 8.93904 8.49415 9.10413L8.50982 9.13712C8.92949 9.11399 9.05748 9.11399 9.41585 9.12027L9.45799 9.08674C9.52277 8.69955 9.54175 8.59594 9.65668 8.03218L9.71449 7.77315C9.82681 7.26621 9.88323 7.00916 9.79825 6.79979C9.7084 6.56514 9.49282 6.50849 9.29483 6.50849ZM11.3321 7.03926C11.109 7.08335 10.9667 7.11275 10.8253 7.13175C10.6852 7.15488 10.5485 7.17585 10.3329 7.20668L10.3158 7.22264L10.3001 7.23536C10.2777 7.40064 10.262 7.5435 10.2322 7.71147C10.207 7.88517 10.1681 8.08253 10.1049 8.36611C10.056 8.58319 10.0308 8.65884 10.0029 8.7352C9.97573 8.81157 9.94578 8.88578 9.89075 9.09927L9.90364 9.11899L9.91443 9.1371C10.1159 9.12724 10.2477 9.12025 10.3832 9.11899C10.5185 9.11397 10.6587 9.11899 10.8757 9.12025L10.8946 9.10429L10.915 9.08673C10.9464 8.8942 10.9511 8.8424 10.9702 8.74847C10.9892 8.64773 11.0219 8.50826 11.1022 8.13577C11.1402 7.96081 11.1825 7.7864 11.2218 7.60786C11.2628 7.43003 11.3056 7.2549 11.3463 7.07995L11.3403 7.05879L11.3321 7.03926ZM11.3368 6.32363C11.1341 6.20048 10.7784 6.23956 10.5389 6.40967C10.3002 6.57638 10.273 6.813 10.475 6.93776C10.6742 7.0575 11.0314 7.02183 11.2687 6.85028C11.507 6.67999 11.5367 6.44552 11.3368 6.32363ZM12.5626 9.17569C12.9727 9.17569 13.3931 9.05935 13.7095 8.71411C13.9529 8.43411 14.0646 8.01751 14.1032 7.84596C14.2291 7.27736 14.1311 7.01188 14.008 6.85019C13.8209 6.60372 13.4904 6.52466 13.1476 6.52466C12.9414 6.52466 12.4503 6.54564 12.0667 6.90971C11.7912 7.17232 11.6639 7.52868 11.5871 7.87034C11.5097 8.21846 11.4205 8.84514 11.9803 9.07836C12.1531 9.15472 12.4021 9.17569 12.5626 9.17569ZM12.5306 7.89634C12.6252 7.46576 12.7368 7.10438 13.0217 7.10438C13.2449 7.10438 13.2611 7.37326 13.1618 7.80527C13.1441 7.90118 13.0626 8.25772 12.9524 8.40955C12.8754 8.52158 12.7843 8.58952 12.6837 8.58952C12.6537 8.58952 12.4756 8.58952 12.4728 8.31723C12.4714 8.18279 12.498 8.04548 12.5306 7.89634ZM15.1284 9.12032L15.1604 9.0868C15.2058 8.83889 15.2133 8.78063 15.314 8.27871C15.3643 8.04066 15.4684 7.51758 15.5174 7.33134C15.61 7.28706 15.6997 7.24368 15.7895 7.24368C15.9955 7.24368 15.9705 7.42993 15.9623 7.50414C15.9548 7.6289 15.8792 8.03564 15.8003 8.38501L15.7514 8.61051C15.714 8.77722 15.6732 8.93891 15.6372 9.10419L15.6528 9.13717C16.0739 9.11405 16.197 9.11404 16.5575 9.12032L16.601 9.0868C16.6642 8.69942 16.6813 8.59581 16.7997 8.03223L16.8561 7.77302C16.969 7.26609 17.0261 7.00921 16.9425 6.79984C16.85 6.56519 16.6331 6.50855 16.4378 6.50855C16.3085 6.50855 16.0711 6.54063 15.8602 6.64783C15.7848 6.68852 15.7093 6.73531 15.6351 6.78227L15.6997 6.52468L15.665 6.48112C15.2154 6.57505 15.1127 6.5876 14.6977 6.64783L14.6659 6.67167C14.6155 7.08342 14.5746 7.39282 14.3958 8.20235C14.3277 8.50063 14.257 8.80178 14.1863 9.09935L14.2053 9.13717C14.6317 9.11405 14.759 9.11404 15.1284 9.12032ZM18.222 9.13708C18.2484 9.00407 18.4057 8.2157 18.4071 8.2157C18.4071 8.2157 18.541 7.63724 18.5492 7.61627C18.5492 7.61627 18.5913 7.55603 18.6334 7.53219H18.6954C19.2803 7.53219 19.9408 7.53219 20.4585 7.14016C20.8108 6.87127 21.0516 6.47422 21.1591 5.99166C21.187 5.87335 21.2075 5.73264 21.2075 5.59192C21.2075 5.4071 21.1715 5.22426 21.0673 5.0814C20.8033 4.70119 20.2776 4.6942 19.6708 4.69133C19.6688 4.69133 19.3716 4.6942 19.3716 4.6942C18.5948 4.70406 18.2832 4.70119 18.1553 4.68506C18.1445 4.74332 18.1241 4.84693 18.1241 4.84693C18.1241 4.84693 17.8458 6.1745 17.8458 6.17665C17.8458 6.17665 17.1799 8.99923 17.1486 9.13224C17.8268 9.12381 18.1049 9.12381 18.222 9.13708ZM18.7376 6.77878C18.7376 6.77878 19.0334 5.45389 19.032 5.45891L19.0416 5.39097L19.0458 5.33917L19.164 5.35171C19.164 5.35171 19.7742 5.40567 19.7885 5.4071C20.0293 5.50301 20.1286 5.7502 20.0592 6.07286C19.996 6.36774 19.8102 6.61565 19.5715 6.7354C19.3749 6.83686 19.1341 6.84528 18.8859 6.84528H18.7254L18.7376 6.77878ZM20.5796 7.92088C20.5014 8.26397 20.4116 8.89066 20.9687 9.11401C21.1463 9.19181 21.3054 9.21493 21.4672 9.20651C21.638 9.197 21.7963 9.10881 21.9429 8.9819C21.9297 9.03406 21.9165 9.08622 21.9032 9.13857L21.9285 9.17209C22.3292 9.1547 22.4535 9.1547 22.8876 9.15811L22.927 9.12727C22.9904 8.74366 23.0501 8.37117 23.2148 7.63729C23.2951 7.28577 23.3752 6.93765 23.4576 6.58756L23.4447 6.54902C22.9965 6.63453 22.8767 6.65281 22.4455 6.71573L22.4128 6.74316C22.4084 6.77883 22.4039 6.81307 22.3997 6.84731C22.3327 6.73581 22.2355 6.64062 22.0856 6.58129C21.8938 6.50367 21.4435 6.6037 21.0564 6.96651C20.7844 7.22554 20.6538 7.58047 20.5796 7.92088ZM21.521 7.94185C21.617 7.51898 21.7272 7.16119 22.0128 7.16119C22.1933 7.16119 22.2884 7.33273 22.2691 7.62528C22.2538 7.69824 22.2372 7.77514 22.2176 7.86208C22.189 7.98774 22.158 8.11232 22.1279 8.23708C22.0972 8.32241 22.0615 8.4029 22.0223 8.4565C21.9489 8.56369 21.774 8.6302 21.6734 8.6302C21.6448 8.6302 21.4686 8.6302 21.4625 8.36274C21.4611 8.22956 21.4878 8.09243 21.521 7.94185ZM26.4369 6.5456L26.4023 6.50491C25.9588 6.59741 25.8785 6.6121 25.471 6.66875L25.4411 6.69958C25.4397 6.7046 25.4384 6.71231 25.4364 6.7193L25.435 6.71231C25.1316 7.43274 25.1405 7.27733 24.8936 7.8445C24.8922 7.81868 24.8922 7.80255 24.8908 7.77512L24.829 6.5456L24.7901 6.50491C24.3255 6.59741 24.3146 6.6121 23.8855 6.66875L23.8521 6.69958C23.8474 6.71428 23.8474 6.73041 23.8446 6.74798L23.8474 6.75426C23.901 7.03641 23.8881 6.97349 23.9419 7.41876C23.967 7.63727 24.0004 7.85704 24.0255 8.07287C24.0678 8.43407 24.0915 8.61189 24.1432 9.16311C23.8535 9.65535 23.7849 9.84159 23.5059 10.2736L23.5078 10.2779L23.3114 10.5977C23.2889 10.6314 23.2685 10.6545 23.24 10.6644C23.2086 10.6803 23.1679 10.6832 23.1113 10.6832H23.0025L22.8407 11.2371L23.3957 11.247C23.7215 11.2455 23.9263 11.0887 24.0365 10.8779L24.3854 10.2623H24.3799L24.4166 10.2189C24.6514 9.69873 26.4369 6.5456 26.4369 6.5456ZM20.5796 13.8203H20.3442L21.2156 10.8534H21.5046L21.5964 10.5478L21.6053 10.8876C21.5945 11.0977 21.755 11.284 22.1768 11.2532H22.6645L22.8324 10.6819H22.6489C22.5433 10.6819 22.4944 10.6544 22.5005 10.5956L22.4916 10.2499H21.5884V10.2516C21.2964 10.2579 20.4243 10.2805 20.2477 10.3289C20.0341 10.3855 19.8089 10.5523 19.8089 10.5523L19.8974 10.2463H19.0525L18.8764 10.8534L17.9934 13.8656H17.822L17.654 14.4328H19.3368L19.2804 14.6219H20.1096L20.1647 14.4328H20.3973L20.5796 13.8203ZM19.8892 11.4562C19.7539 11.4948 19.5021 11.6117 19.5021 11.6117L19.726 10.8534H20.3973L20.2354 11.4059C20.2354 11.4059 20.028 11.4184 19.8892 11.4562ZM19.9021 12.5395C19.9021 12.5395 19.6912 12.5667 19.5524 12.599C19.4157 12.6417 19.1594 12.7761 19.1594 12.7761L19.3906 11.987H20.0654L19.9021 12.5395ZM19.5259 13.8273H18.8525L19.0478 13.1613H19.719L19.5259 13.8273ZM21.1476 11.987H22.1182L21.9787 12.452H20.9952L20.8475 12.9604H21.7081L21.0565 13.9049C21.0109 13.9743 20.97 13.9988 20.9245 14.0184C20.8789 14.0422 20.819 14.0702 20.7497 14.0702H20.5109L20.3469 14.6269H20.9714C21.2959 14.6269 21.4877 14.4749 21.6292 14.2754L22.0761 13.6459L22.172 14.2851C22.1924 14.4048 22.276 14.4749 22.3326 14.5022C22.3951 14.5344 22.4597 14.5898 22.5509 14.5981C22.6488 14.6024 22.7195 14.6058 22.7665 14.6058H23.0733L23.2576 13.9827H23.1365C23.0671 13.9827 22.9474 13.9707 22.9271 13.9483C22.9067 13.921 22.9067 13.8791 22.8957 13.8153L22.7984 13.1746H22.3998L22.5746 12.9604H23.5562L23.7072 12.452H22.7984L22.94 11.987H23.846L24.014 11.4136H21.3128L21.1476 11.987ZM12.9496 13.9568L13.1762 13.1809H14.1073L14.2774 12.6039H13.3454L13.4877 12.1264H14.3984L14.5672 11.5676H12.2884L12.1232 12.1264H12.6409L12.5028 12.6039H11.9837L11.8116 13.1908H12.3292L12.0272 14.2172C11.9865 14.3531 12.0464 14.4049 12.0843 14.468C12.1232 14.5295 12.1625 14.5702 12.251 14.5933C12.3422 14.6143 12.4047 14.6268 12.4897 14.6268H13.5394L13.7264 13.9876L13.2611 14.0534C13.1713 14.0534 12.9224 14.0423 12.9496 13.9568ZM13.0564 10.2428L12.8205 10.6818C12.77 10.7777 12.7245 10.8372 12.6836 10.8646C12.6475 10.8877 12.5761 10.8974 12.4727 10.8974H12.3496L12.185 11.459H12.5939C12.7905 11.459 12.9415 11.3848 13.0136 11.3477C13.0911 11.305 13.1114 11.3294 13.1713 11.2699L13.3094 11.1468H14.5862L14.7556 10.562H13.821L13.9842 10.2428H13.0564ZM14.9413 13.968C14.9195 13.9358 14.9352 13.8789 14.9685 13.7606L15.3174 12.5716H16.5589C16.7398 12.5689 16.8704 12.5668 16.9554 12.5605C17.0466 12.5506 17.1459 12.5171 17.254 12.4569C17.3656 12.3938 17.4227 12.3273 17.471 12.2509C17.5248 12.1747 17.6112 12.008 17.6853 11.751L18.124 10.2463L16.8357 10.254C16.8357 10.254 16.4391 10.3142 16.2644 10.3807C16.0882 10.455 15.8364 10.6622 15.8364 10.6622L15.9527 10.2497H15.1569L14.0428 14.0534C14.0032 14.2011 13.9768 14.3083 13.9707 14.3726C13.9686 14.442 14.0557 14.5106 14.1121 14.5624C14.1788 14.6143 14.2773 14.6058 14.3719 14.6143C14.4713 14.622 14.6127 14.6268 14.8079 14.6268H15.4195L15.6072 13.9743L15.0597 14.0275C15.0012 14.0275 14.9589 13.9953 14.9413 13.968ZM15.5426 11.7686H16.8465L16.7636 12.036C16.752 12.0423 16.7241 12.0227 16.5914 12.0389H15.4623L15.5426 11.7686ZM15.8038 10.8715H17.1187L17.0241 11.1937C17.0241 11.1937 16.4044 11.1874 16.3051 11.2062C15.8684 11.284 15.6133 11.5242 15.6133 11.5242L15.8038 10.8715ZM16.7928 12.9316C16.782 12.9716 16.765 12.996 16.7411 13.0143C16.7146 13.0318 16.6718 13.0381 16.6079 13.0381H16.4221L16.4331 12.7124H15.6602L15.6289 14.3047C15.6277 14.4196 15.6385 14.4861 15.7202 14.5394C15.8018 14.6059 16.0534 14.6143 16.3921 14.6143H16.8764L17.0512 14.0183L16.6297 14.0421L16.4895 14.0505C16.4703 14.0421 16.452 14.0344 16.4317 14.0134C16.4139 13.9953 16.384 14.0064 16.3888 13.8915L16.3921 13.4834L16.8343 13.4646C17.073 13.4646 17.1751 13.3846 17.2621 13.3084C17.3452 13.2355 17.3723 13.1516 17.4037 13.0381L17.4779 12.6767H16.8703L16.7928 12.9316Z" fill="#FEFEFE"/>
</svg>
